<?xml version="1.0" encoding="UTF-8"?>
<svg width="868px" height="1160px" viewBox="0 0 868 1160" version="1.1" xmlns="http://www.w3.org/2000/svg" xmlns:xlink="http://www.w3.org/1999/xlink">
    <title>Hallebot Graduate</title>
    <g id="Hallebot-Graduate" stroke="none" stroke-width="1" fill="none" fill-rule="evenodd">
        <g id="Group-2" transform="translate(0.000000, 112.000000)">
            <polyline id="Fill-32" fill="#2E1B36" points="109.596 402.3728 124.808 436.5888 89.556 413.5208 80.772 454.7208 65.816 415.3408 34.492 443.5088 45.54 402.8568 3.636 407.2368 36.472 380.8408 -1.37134748e-12 359.7528 42.08 357.6968 24.968 319.2008 60.22 342.2728 69 301.0688 83.956 340.4528 115.284 312.2808 105.464 348.4208"></polyline>
            <polyline id="Fill-33" fill="#2E1B36" points="759.7444 348.4196 749.9244 312.2796 781.2524 340.4516 796.2084 301.0676 804.9924 342.2716 840.2404 319.1996 823.1284 357.6956 865.2084 359.7516 828.7364 380.8396 861.5684 407.2356 819.6684 402.8556 830.7164 443.5076 799.3884 415.3396 784.4364 454.7236 775.6564 413.5196 740.4044 436.5876 755.6164 402.3716"></polyline>
            <path d="M545.6544,1029.8688 L545.6544,1026.5928 C545.6544,1021.7848 549.4504,1017.7688 554.2944,1017.4528 L558.8464,1017.1608 L559.1624,1012.6168 C564.1064,942.3128 546.4784,883.8448 503.6864,828.6168 L501.4504,825.7368 L497.7024,826.4928 C478.1864,832.7288 455.7944,835.8888 431.1544,835.8888 C406.5344,835.8888 384.1544,832.7328 364.6464,826.5048 L361.1984,825.4128 L358.9624,828.2488 C315.8784,883.8448 298.2464,942.3128 303.1944,1012.6168 L303.5104,1017.1608 L308.0624,1017.4528 C312.9104,1017.7688 316.7064,1021.7848 316.7064,1026.5928 L316.7064,1029.8688 L146.1664,1029.8688 L146.1664,1026.5928 C146.1664,1021.5128 150.3024,1017.3768 155.3824,1017.3768 L227.0384,1017.3768 L226.7264,1011.8608 C221.8744,926.5168 244.4784,852.4528 295.8224,785.4448 L298.2544,782.2688 L295.8224,779.0968 C278.3224,756.2728 266.6104,726.1688 260.9944,689.6408 L260.3184,685.2128 L255.8384,685.2128 C183.5464,685.2128 115.6504,643.6728 82.6624,579.3368 L99.2544,573.6128 L97.8384,563.4688 C77.3984,562.3608 59.6224,549.2488 52.5504,530.0648 C45.0664,509.7768 51.4224,486.8648 67.6504,473.1928 L73.4064,488.8048 C64.8704,498.6608 62.2664,512.4208 66.8304,524.8008 C72.0224,538.8728 85.5984,548.3248 100.6144,548.3208 C104.8464,548.3208 109.0264,547.5768 113.0264,546.1008 C122.0264,542.7808 129.2024,536.1448 133.2304,527.4128 C137.2544,518.6808 137.6464,508.9128 134.3264,499.9088 C129.7624,487.5368 118.8464,478.7568 105.9584,476.8008 L100.1944,461.1808 C100.3224,461.1808 100.4504,461.1808 100.5784,461.1808 C121.9304,461.1808 141.2304,474.6248 148.6064,494.6408 C155.9024,514.4128 150.0984,537.0328 134.1784,550.9128 L139.3104,559.7808 L155.8144,554.0768 C176.9264,587.1448 214.3024,608.1688 253.4424,608.9768 L257.5304,609.0568 L258.5864,605.1088 C261.5064,594.1968 267.9384,585.5088 278.2624,578.5528 L288.4784,571.6608 L276.4184,569.1208 C253.4904,564.2928 248.3464,559.8328 247.3264,558.6208 C248.4864,557.2528 254.9224,551.7288 286.3424,546.2208 L305.8344,542.8008 L287.1864,536.1688 C267.2424,529.0688 251.3464,520.0488 238.5904,508.5928 C219.5104,491.4528 207.4464,468.1488 201.7024,437.3448 L200.9064,433.0808 L193.2864,433.0808 C185.7344,433.0808 179.1024,427.9728 177.1664,420.6608 L176.1384,416.7808 L171.0504,416.7808 C162.4344,416.7808 154.7264,410.5248 151.8664,401.2088 L150.9904,398.3608 L99.4024,386.0328 L97.5144,389.6368 C93.0784,398.1368 84.4064,403.4168 74.8864,403.4168 C60.8144,403.4168 49.3664,391.9688 49.3664,377.8968 C49.3664,363.8248 60.8144,352.3768 74.8864,352.3768 C84.4104,352.3768 93.0784,357.6528 97.5104,366.1528 L99.3904,369.7608 L150.6224,357.5208 L151.4864,354.6288 C154.2504,345.2888 161.9664,339.0168 170.6744,339.0168 L176.1384,339.0168 L177.1664,335.1328 C179.1024,327.8168 185.7344,322.7088 193.2864,322.7088 L204.6664,322.7088 L205.5864,318.6368 C217.2664,266.6368 239.7544,208.0448 267.2904,157.8848 C296.4464,104.7688 356.5064,15.6488 431.1544,15.6488 C505.8024,15.6488 565.8664,104.7688 595.0224,157.8888 C622.5624,208.0528 645.0504,266.6408 656.7264,318.6368 L657.6384,322.7088 L673.6504,322.7088 C681.2064,322.7088 687.8344,327.8168 689.7704,335.1328 L690.7984,339.0168 L696.2584,339.0168 C704.9704,339.0168 712.6824,345.2888 715.4464,354.6288 L716.3024,357.5208 L767.5464,369.7608 L769.4264,366.1528 C773.8584,357.6528 782.5264,352.3768 792.0544,352.3768 C806.1224,352.3768 817.5704,363.8248 817.5704,377.8968 C817.5704,391.9688 806.1224,403.4168 792.0544,403.4168 C782.5264,403.4168 773.8544,398.1368 769.4184,389.6368 L767.5424,386.0328 L715.9464,398.3608 L715.0704,401.2128 C712.2184,410.5248 704.5104,416.7808 695.8904,416.7808 L690.7984,416.7808 L689.7704,420.6608 C687.8344,427.9728 681.2064,433.0808 673.6504,433.0808 L661.3824,433.0808 L660.6024,437.3648 C651.3344,488.2408 625.1544,518.7408 575.7064,536.2688 L557.0624,542.8728 L576.5344,546.3208 C607.4624,551.7968 613.8384,557.2608 614.9904,558.6208 C613.9704,559.8328 608.8184,564.2928 585.8944,569.1208 L573.8304,571.6608 L584.0544,578.5528 C594.3944,585.5208 600.8304,594.2248 603.7384,605.1688 L604.7744,609.0528 L608.7944,609.0448 C648.7824,608.9888 686.9944,587.9328 708.5984,554.0768 L725.1104,559.7808 L730.2424,550.9128 C714.3144,537.0328 708.5144,514.4168 715.8104,494.6448 C723.1904,474.6248 742.4904,461.1808 763.8384,461.1808 C763.9624,461.1808 764.0904,461.1808 764.2224,461.1808 L758.4624,476.8008 C745.5704,478.7568 734.6544,487.5368 730.0864,499.9128 C723.2344,518.5208 732.7904,539.2368 751.3984,546.1008 C755.3984,547.5768 759.5704,548.3208 763.8064,548.3208 C778.8264,548.3208 792.3984,538.8688 797.5824,524.7968 C802.1504,512.4208 799.5464,498.6568 791.0144,488.8048 L796.7704,473.1928 C812.9904,486.8648 819.3504,509.7768 811.8704,530.0688 C804.7984,549.2488 787.0184,562.3608 766.5744,563.4688 L765.1624,573.6128 L781.7544,579.3408 C748.7664,643.6728 680.8664,685.2128 608.6304,685.2128 L601.9984,685.2128 L601.3184,689.6368 C595.7104,726.1528 583.9984,756.2448 566.5144,779.0648 L564.0824,782.2368 L566.5144,785.4128 C617.8784,852.4328 640.4904,926.5048 635.6384,1011.8608 L635.3224,1017.3768 L706.9784,1017.3768 C712.0624,1017.3768 716.1984,1021.5128 716.1984,1026.5928 L716.1984,1029.8688 L545.6544,1029.8688 Z" id="Fill-34" fill="#FEFEFE"></path>
            <path d="M508.0412,636.0624 L452.9692,672.2064 C451.3532,673.2664 451.8412,675.7584 453.7452,676.1304 L471.9452,679.6824 L450.0252,704.4504 C447.9212,706.8224 450.8772,710.2664 453.5452,708.5544 L504.7812,675.5904 C506.2292,674.6584 506.0572,672.4904 504.4812,671.7984 L490.0332,665.4464 L512.9972,642.1024 C516.3012,638.7464 511.9772,633.4784 508.0412,636.0624" id="Fill-35" fill="#EFC319"></path>
            <path d="M90.3832,373.0856 C88.3152,379.7176 82.1912,384.5776 74.8832,384.5776 C67.5832,384.5776 61.4592,379.7176 59.3912,373.0856 C58.9152,374.6176 58.5832,376.2096 58.5832,377.8976 C58.5832,386.8856 65.8952,394.1976 74.8832,394.1976 C83.8792,394.1976 91.1912,386.8856 91.1912,377.8976 C91.1912,376.2096 90.8592,374.6176 90.3832,373.0856" id="Fill-36" fill="#2E1B36"></path>
            <path d="M792.0532,394.1988 C801.0412,394.1988 808.3532,386.8868 808.3532,377.8948 C808.3532,376.2108 808.0212,374.6148 807.5452,373.0868 C805.4772,379.7148 799.3532,384.5788 792.0532,384.5788 C784.7492,384.5788 778.6252,379.7148 776.5532,373.0868 C776.0772,374.6148 775.7492,376.2108 775.7492,377.8948 C775.7492,386.8868 783.0612,394.1988 792.0532,394.1988" id="Fill-37" fill="#2E1B36"></path>
            <path d="M405.4984,76.242 C408.0744,76.242 410.1624,78.33 410.1624,80.906 C410.1624,83.482 408.0744,85.566 405.4984,85.566 C402.9224,85.566 400.8344,83.482 400.8344,80.906 C400.8344,78.33 402.9224,76.242 405.4984,76.242 M405.4984,91.15 C410.4984,91.15 414.5544,87.094 414.5544,82.09 C414.5544,77.09 410.4984,73.034 405.4984,73.034 C400.4984,73.034 396.4424,77.09 396.4424,82.09 C396.4424,87.094 400.4984,91.15 405.4984,91.15" id="Fill-38" fill="#2E1B36"></path>
            <path d="M405.4984,140.3864 C408.0744,140.3864 410.1624,142.4744 410.1624,145.0504 C410.1624,147.6264 408.0744,149.7104 405.4984,149.7104 C402.9224,149.7104 400.8344,147.6264 400.8344,145.0504 C400.8344,142.4744 402.9224,140.3864 405.4984,140.3864 M405.4984,155.2944 C410.4984,155.2944 414.5544,151.2384 414.5544,146.2344 C414.5544,141.2344 410.4984,137.1784 405.4984,137.1784 C400.4984,137.1784 396.4424,141.2344 396.4424,146.2344 C396.4424,151.2384 400.4984,155.2944 405.4984,155.2944" id="Fill-39" fill="#2E1B36"></path>
            <path d="M456.8148,108.314 C459.3908,108.314 461.4788,110.402 461.4788,112.978 C461.4788,115.554 459.3908,117.638 456.8148,117.638 C454.2388,117.638 452.1548,115.554 452.1548,112.978 C452.1548,110.402 454.2388,108.314 456.8148,108.314 M456.8148,123.222 C461.8188,123.222 465.8748,119.166 465.8748,114.162 C465.8748,109.162 461.8188,105.106 456.8148,105.106 C451.8108,105.106 447.7548,109.162 447.7548,114.162 C447.7548,119.166 451.8108,123.222 456.8148,123.222" id="Fill-40" fill="#2E1B36"></path>
            <path d="M405.4984,204.5328 C408.0744,204.5328 410.1624,206.6168 410.1624,209.1968 C410.1624,211.7688 408.0744,213.8568 405.4984,213.8568 C402.9224,213.8568 400.8344,211.7688 400.8344,209.1968 C400.8344,206.6168 402.9224,204.5328 405.4984,204.5328 M405.4984,219.4408 C410.4984,219.4408 414.5544,215.3848 414.5544,210.3808 C414.5544,205.3808 410.4984,201.3248 405.4984,201.3248 C400.4984,201.3248 396.4424,205.3808 396.4424,210.3808 C396.4424,215.3848 400.4984,219.4408 405.4984,219.4408" id="Fill-41" fill="#2E1B36"></path>
            <path d="M456.8148,172.4608 C459.3908,172.4608 461.4788,174.5448 461.4788,177.1248 C461.4788,179.6968 459.3908,181.7848 456.8148,181.7848 C454.2388,181.7848 452.1548,179.6968 452.1548,177.1248 C452.1548,174.5448 454.2388,172.4608 456.8148,172.4608 M456.8148,187.3688 C461.8188,187.3688 465.8748,183.3128 465.8748,178.3088 C465.8748,173.3088 461.8188,169.2528 456.8148,169.2528 C451.8108,169.2528 447.7548,173.3088 447.7548,178.3088 C447.7548,183.3128 451.8108,187.3688 456.8148,187.3688" id="Fill-42" fill="#2E1B36"></path>
            <path d="M405.4984,268.6776 C408.0744,268.6776 410.1624,270.7616 410.1624,273.3416 C410.1624,275.9136 408.0744,278.0016 405.4984,278.0016 C402.9224,278.0016 400.8344,275.9136 400.8344,273.3416 C400.8344,270.7616 402.9224,268.6776 405.4984,268.6776 M405.4984,283.5856 C410.4984,283.5856 414.5544,279.5296 414.5544,274.5256 C414.5544,269.5256 410.4984,265.4696 405.4984,265.4696 C400.4984,265.4696 396.4424,269.5256 396.4424,274.5256 C396.4424,279.5296 400.4984,283.5856 405.4984,283.5856" id="Fill-43" fill="#2E1B36"></path>
            <path d="M456.8148,236.6052 C459.3908,236.6052 461.4788,238.6892 461.4788,241.2692 C461.4788,243.8412 459.3908,245.9292 456.8148,245.9292 C454.2388,245.9292 452.1548,243.8412 452.1548,241.2692 C452.1548,238.6892 454.2388,236.6052 456.8148,236.6052 M456.8148,251.5132 C461.8188,251.5132 465.8748,247.4572 465.8748,242.4532 C465.8748,237.4532 461.8188,233.3972 456.8148,233.3972 C451.8108,233.3972 447.7548,237.4532 447.7548,242.4532 C447.7548,247.4572 451.8108,251.5132 456.8148,251.5132" id="Fill-44" fill="#2E1B36"></path>
            <path d="M405.4984,332.822 C408.0744,332.822 410.1624,334.906 410.1624,337.486 C410.1624,340.058 408.0744,342.146 405.4984,342.146 C402.9224,342.146 400.8344,340.058 400.8344,337.486 C400.8344,334.906 402.9224,332.822 405.4984,332.822 M405.4984,347.73 C410.4984,347.73 414.5544,343.674 414.5544,338.67 C414.5544,333.67 410.4984,329.614 405.4984,329.614 C400.4984,329.614 396.4424,333.67 396.4424,338.67 C396.4424,343.674 400.4984,347.73 405.4984,347.73" id="Fill-45" fill="#2E1B36"></path>
            <path d="M456.8148,300.7496 C459.3908,300.7496 461.4788,302.8336 461.4788,305.4136 C461.4788,307.9856 459.3908,310.0736 456.8148,310.0736 C454.2388,310.0736 452.1548,307.9856 452.1548,305.4136 C452.1548,302.8336 454.2388,300.7496 456.8148,300.7496 M456.8148,315.6576 C461.8188,315.6576 465.8748,311.6016 465.8748,306.5976 C465.8748,301.5976 461.8188,297.5416 456.8148,297.5416 C451.8108,297.5416 447.7548,301.5976 447.7548,306.5976 C447.7548,311.6016 451.8108,315.6576 456.8148,315.6576" id="Fill-46" fill="#2E1B36"></path>
            <path d="M405.4984,396.9664 C408.0744,396.9664 410.1624,399.0544 410.1624,401.6304 C410.1624,404.2024 408.0744,406.2904 405.4984,406.2904 C402.9224,406.2904 400.8344,404.2024 400.8344,401.6304 C400.8344,399.0544 402.9224,396.9664 405.4984,396.9664 M405.4984,411.8744 C410.4984,411.8744 414.5544,407.8184 414.5544,402.8144 C414.5544,397.8144 410.4984,393.7584 405.4984,393.7584 C400.4984,393.7584 396.4424,397.8144 396.4424,402.8144 C396.4424,407.8184 400.4984,411.8744 405.4984,411.8744" id="Fill-47" fill="#2E1B36"></path>
            <path d="M456.8148,374.2184 C454.2388,374.2184 452.1548,372.1304 452.1548,369.5544 C452.1548,366.9824 454.2388,364.8944 456.8148,364.8944 C459.3908,364.8944 461.4788,366.9824 461.4788,369.5544 C461.4788,372.1304 459.3908,374.2184 456.8148,374.2184 M456.8148,361.6864 C451.8108,361.6864 447.7548,365.7424 447.7548,370.7424 C447.7548,375.7464 451.8108,379.8024 456.8148,379.8024 C461.8188,379.8024 465.8748,375.7464 465.8748,370.7424 C465.8748,365.7424 461.8188,361.6864 456.8148,361.6864" id="Fill-48" fill="#2E1B36"></path>
            <path d="M405.4984,534.5796 C402.9224,534.5796 400.8344,532.4916 400.8344,529.9156 C400.8344,527.3436 402.9224,525.2556 405.4984,525.2556 C408.0744,525.2556 410.1624,527.3436 410.1624,529.9156 C410.1624,532.4916 408.0744,534.5796 405.4984,534.5796 M405.4984,522.0476 C400.4984,522.0476 396.4424,526.1036 396.4424,531.1036 C396.4424,536.1076 400.4984,540.1636 405.4984,540.1636 C410.4984,540.1636 414.5544,536.1076 414.5544,531.1036 C414.5544,526.1036 410.4984,522.0476 405.4984,522.0476" id="Fill-49" fill="#2E1B36"></path>
            <path d="M456.8148,502.5076 C454.2388,502.5076 452.1548,500.4196 452.1548,497.8436 C452.1548,495.2716 454.2388,493.1836 456.8148,493.1836 C459.3908,493.1836 461.4788,495.2716 461.4788,497.8436 C461.4788,500.4196 459.3908,502.5076 456.8148,502.5076 M456.8148,489.9756 C451.8108,489.9756 447.7548,494.0316 447.7548,499.0316 C447.7548,504.0356 451.8108,508.0916 456.8148,508.0916 C461.8188,508.0916 465.8748,504.0356 465.8748,499.0316 C465.8748,494.0316 461.8188,489.9756 456.8148,489.9756" id="Fill-50" fill="#2E1B36"></path>
            <path d="M346.4788,373.1052 C346.4788,385.9252 341.3508,390.7332 333.3388,390.7332 C325.3188,390.7332 320.1948,385.9252 320.1948,373.1052 L320.1948,261.8852 C320.1948,249.0652 325.3188,244.2532 333.3388,244.2532 C341.3508,244.2532 346.4788,249.0652 346.4788,261.8852 L346.4788,373.1052 Z M366.3508,373.1052 L366.3508,261.8852 C366.3508,235.2772 350.3228,228.2252 333.3388,228.2252 C316.3508,228.2252 300.3228,235.2772 300.3228,261.8852 L300.3228,373.1052 C300.3228,399.7092 316.3508,406.7612 333.3388,406.7612 C350.3228,406.7612 366.3508,399.7092 366.3508,373.1052 L366.3508,373.1052 Z" id="Fill-51" fill="#2E1B36"></path>
            <path d="M528.9788,406.7692 C536.9908,406.7692 542.1188,401.9612 542.1188,389.1412 L542.1188,245.8492 C542.1188,233.0252 536.9908,228.2172 528.9788,228.2172 C520.9628,228.2172 515.8348,233.0252 515.8348,245.8492 L515.8348,389.1412 C515.8348,401.9612 520.9628,406.7692 528.9788,406.7692" id="Fill-52" fill="#2E1B36"></path>
            <path d="M306.172,630.0252 C308.748,630.0252 310.836,632.1132 310.836,634.6892 C310.836,637.2612 308.748,639.3492 306.172,639.3492 C303.596,639.3492 301.508,637.2612 301.508,634.6892 C301.508,632.1132 303.596,630.0252 306.172,630.0252 M306.172,644.9332 C311.172,644.9332 315.228,640.8772 315.228,635.8732 C315.228,630.8732 311.172,626.8172 306.172,626.8172 C301.172,626.8172 297.116,630.8732 297.116,635.8732 C297.116,640.8772 301.172,644.9332 306.172,644.9332" id="Fill-53" fill="#2E1B36"></path>
            <path d="M346.4124,666.7596 C346.4124,664.1836 348.4964,662.0956 351.0764,662.0956 C353.6484,662.0956 355.7364,664.1836 355.7364,666.7596 C355.7364,669.3356 353.6484,671.4236 351.0764,671.4236 C348.4964,671.4236 346.4124,669.3356 346.4124,666.7596 M360.1324,667.9476 C360.1324,662.9436 356.0764,658.8916 351.0764,658.8916 C346.0724,658.8916 342.0164,662.9436 342.0164,667.9476 C342.0164,672.9476 346.0724,677.0036 351.0764,677.0036 C356.0764,677.0036 360.1324,672.9476 360.1324,667.9476" id="Fill-54" fill="#2E1B36"></path>
            <path d="M357.4884,601.16 C360.0644,601.16 362.1524,603.248 362.1524,605.824 C362.1524,608.396 360.0644,610.484 357.4884,610.484 C354.9124,610.484 352.8244,608.396 352.8244,605.824 C352.8244,603.248 354.9124,601.16 357.4884,601.16 M357.4884,616.068 C362.4884,616.068 366.5444,612.012 366.5444,607.008 C366.5444,602.008 362.4884,597.952 357.4884,597.952 C352.4884,597.952 348.4324,602.008 348.4324,607.008 C348.4324,612.012 352.4884,616.068 357.4884,616.068" id="Fill-55" fill="#2E1B36"></path>
            <path d="M302.9652,703.494 C300.3892,703.494 298.3012,701.406 298.3012,698.83 C298.3012,696.258 300.3892,694.17 302.9652,694.17 C305.5412,694.17 307.6292,696.258 307.6292,698.83 C307.6292,701.406 305.5412,703.494 302.9652,703.494 M312.0212,700.018 C312.0212,695.018 307.9652,690.962 302.9652,690.962 C297.9652,690.962 293.9092,695.018 293.9092,700.018 C293.9092,705.022 297.9652,709.078 302.9652,709.078 C307.9652,709.078 312.0212,705.022 312.0212,700.018" id="Fill-56" fill="#2E1B36"></path>
            <path d="M349.6196,730.904 C349.6196,728.328 351.7036,726.24 354.2836,726.24 C356.8556,726.24 358.9436,728.328 358.9436,730.904 C358.9436,733.48 356.8556,735.568 354.2836,735.568 C351.7036,735.568 349.6196,733.48 349.6196,730.904 M363.3396,732.092 C363.3396,727.088 359.2836,723.036 354.2836,723.036 C349.2796,723.036 345.2236,727.088 345.2236,732.092 C345.2236,737.092 349.2796,741.148 354.2836,741.148 C359.2836,741.148 363.3396,737.092 363.3396,732.092" id="Fill-57" fill="#2E1B36"></path>
            <path d="M311.1312,762.9784 C311.1312,760.4024 313.2192,758.3144 315.7952,758.3144 C318.3712,758.3144 320.4552,760.4024 320.4552,762.9784 C320.4552,765.5544 318.3712,767.6384 315.7952,767.6384 C313.2192,767.6384 311.1312,765.5544 311.1312,762.9784 M324.8512,764.1664 C324.8512,759.1624 320.7952,755.1064 315.7952,755.1064 C310.7912,755.1064 306.7352,759.1624 306.7352,764.1664 C306.7352,769.1664 310.7912,773.2224 315.7952,773.2224 C320.7952,773.2224 324.8512,769.1664 324.8512,764.1664" id="Fill-58" fill="#2E1B36"></path>
            <path d="M360.6956,799.7124 C358.1196,799.7124 356.0316,797.6244 356.0316,795.0484 C356.0316,792.4724 358.1196,790.3884 360.6956,790.3884 C363.2716,790.3884 365.3596,792.4724 365.3596,795.0484 C365.3596,797.6244 363.2716,799.7124 360.6956,799.7124 M360.6956,787.1804 C355.6956,787.1804 351.6396,791.2364 351.6396,796.2364 C351.6396,801.2404 355.6956,805.2964 360.6956,805.2964 C365.6956,805.2964 369.7516,801.2404 369.7516,796.2364 C369.7516,791.2364 365.6956,787.1804 360.6956,787.1804" id="Fill-59" fill="#2E1B36"></path>
            <path d="M742.932,551.9764 C744.06,548.9164 747.456,547.3484 750.516,548.4764 C753.58,549.6084 755.148,553.0044 754.016,556.0644 C752.888,559.1284 749.492,560.6924 746.432,559.5644 C743.368,558.4364 741.804,555.0404 742.932,551.9764 L742.932,551.9764 Z M766.328,596.7324 L755.32,591.7404 C758.084,587.1764 760.616,582.4204 762.96,577.5084 L775.452,581.8244 C772.64,586.9564 769.58,591.9244 766.328,596.7324 L766.328,596.7324 Z M724.708,640.8644 L717.732,633.8724 C723.448,629.4484 728.828,624.6924 733.828,619.5684 L742.208,625.6524 C736.684,631.0764 730.836,636.1524 724.708,640.8644 L724.708,640.8644 Z M613.444,671.7564 C618.328,671.3124 623.116,670.7404 627.82,670.0484 L628.312,679.7324 C623.384,680.2564 618.428,680.6124 613.444,680.7444 L613.444,671.7564 Z M431.156,831.4844 C396.872,831.4844 369.516,825.2124 347.664,814.7284 C324.924,724.0004 323.652,647.9564 343.912,583.0324 C370.024,585.0084 399.68,586.1324 431.156,586.1324 C487.544,586.1324 538.144,582.5444 572.808,576.8524 C590.92,585.4884 601.14,598.8084 601.14,619.3564 C601.14,677.3764 601.14,831.4844 431.156,831.4844 L431.156,831.4844 Z M598.844,1012.1604 C598.936,1009.1244 598.996,1006.0964 599.016,1003.0884 L631.636,1003.0884 C631.524,1006.0884 631.34,1009.1284 631.16,1012.1604 L598.844,1012.1604 Z M525.724,823.9764 C527.244,826.2444 528.776,828.5004 530.232,830.7804 L517.484,840.0484 C515.408,837.0484 513.3,834.0524 511.084,831.0764 C514.784,829.5364 519.888,827.2004 525.724,823.9764 L525.724,823.9764 Z M544.712,820.2444 C543.404,818.3364 542.044,816.4484 540.688,814.5604 C549.092,808.5684 557.86,801.0044 565.688,791.5884 C567.876,794.5084 569.94,797.4524 572.016,800.3924 L544.712,820.2444 Z M558.956,843.0404 C555.608,837.1364 552.04,831.3204 548.276,825.5884 L575.704,805.6404 C580.164,812.1684 584.3,818.7604 588.212,825.4004 L558.956,843.0404 Z M570.624,865.8204 C567.952,860.0244 565.108,854.3044 562.06,848.6564 L591.472,830.9284 C595.156,837.4564 598.52,844.0564 601.692,850.7044 L570.624,865.8204 Z M580.56,890.1444 C578.324,883.9084 575.928,877.7364 573.288,871.6604 L604.476,856.4884 C607.66,863.5284 610.48,870.6684 613.104,877.8684 L580.56,890.1444 Z M588.512,915.8684 C586.776,909.2284 584.888,902.6484 582.724,896.1804 L615.308,883.8924 C617.92,891.5684 620.16,899.3604 622.152,907.2404 L588.512,915.8684 Z M628.288,937.9244 L594.48,943.9324 C593.256,936.5564 591.848,929.2524 590.136,922.0764 L623.684,913.4684 C625.536,921.5004 627.064,929.6524 628.288,937.9244 L628.288,937.9244 Z M597.768,970.3884 C597.192,963.6124 596.492,956.8844 595.524,950.2604 L629.148,944.2884 C630.12,951.9124 630.844,959.6444 631.296,967.4924 L597.768,970.3884 Z M564.308,996.6724 C564.424,990.9564 564.432,985.2924 564.236,979.7204 L579.86,978.3724 C580.216,984.4404 580.416,990.5324 580.392,996.6724 L564.308,996.6724 Z M563.612,1012.1604 C563.82,1009.1244 564.024,1006.0844 564.148,1003.0884 L580.248,1003.0884 C580.172,1006.1044 580.064,1009.1284 579.896,1012.1604 L563.612,1012.1604 Z M562.392,956.1484 L577.344,953.4924 C578.236,959.6164 578.932,965.7764 579.428,971.9764 L563.892,973.3124 C563.56,967.5204 563.076,961.7964 562.392,956.1484 L562.392,956.1484 Z M572.096,926.7044 C573.756,933.4764 575.168,940.2964 576.328,947.1564 L561.516,949.7924 C560.556,943.2204 559.408,936.7204 557.956,930.3284 L572.096,926.7044 Z M565.168,902.8084 C567.14,908.6644 568.916,914.5604 570.512,920.4844 L556.384,924.1124 C554.996,918.6444 553.472,913.2284 551.708,907.8844 L565.168,902.8084 Z M556.42,879.8684 C558.82,885.4644 560.988,891.1004 563.028,896.7604 L549.572,901.8364 C547.684,896.5764 545.656,891.3564 543.4,886.2004 L556.42,879.8684 Z M530.296,860.3164 C527.408,855.3044 524.32,850.3244 521.052,845.3804 L533.616,836.2484 C536.952,841.6644 540.124,847.1124 543.104,852.5964 L530.296,860.3164 Z M546.132,858.2644 C548.848,863.4844 551.372,868.7404 553.768,874.0204 L540.724,880.3684 C538.456,875.5124 536.028,870.6964 533.428,865.9204 L546.132,858.2644 Z M631.788,996.6724 L599.008,996.6724 C598.94,989.9764 598.724,983.3324 598.296,976.7804 L631.6,973.9084 C631.892,981.3844 631.948,988.9764 631.788,996.6724 L631.788,996.6724 Z M344.876,840.0484 L332.128,830.7804 C333.588,828.5004 335.116,826.2444 336.632,823.9764 C342.472,827.2004 347.576,829.5404 351.276,831.0764 C349.06,834.0524 346.952,837.0484 344.876,840.0484 L344.876,840.0484 Z M230.724,1003.0884 L263.344,1003.0884 C263.364,1006.0964 263.428,1009.1244 263.516,1012.1604 L231.2,1012.1604 C231.02,1009.1284 230.836,1006.0884 230.724,1003.0884 L230.724,1003.0884 Z M290.344,800.3924 C292.424,797.4524 294.484,794.5084 296.676,791.5884 C304.5,801.0044 313.268,808.5684 321.672,814.5564 C320.312,816.4484 318.956,818.3364 317.644,820.2444 L290.344,800.3924 Z M303.404,843.0404 L274.148,825.4004 C278.064,818.7644 282.196,812.1684 286.656,805.6404 L314.088,825.5884 C310.32,831.3204 306.752,837.1404 303.404,843.0404 L303.404,843.0404 Z M319.256,852.5964 C322.24,847.1164 325.408,841.6644 328.744,836.2484 L341.304,845.3844 C338.04,850.3244 334.952,855.3044 332.064,860.3164 L319.256,852.5964 Z M308.592,874.0204 C310.988,868.7404 313.516,863.4844 316.232,858.2644 L328.932,865.9204 C326.328,870.6964 323.904,875.5124 321.636,880.3644 L308.592,874.0204 Z M299.332,896.7604 C301.372,891.1004 303.54,885.4644 305.94,879.8644 L318.96,886.2004 C316.708,891.3564 314.676,896.5764 312.788,901.8324 L299.332,896.7604 Z M291.848,920.4844 C293.444,914.5604 295.22,908.6644 297.196,902.8084 L310.652,907.8844 C308.892,913.2284 307.364,918.6444 305.972,924.1124 L291.848,920.4844 Z M300.844,949.7924 L286.032,947.1564 C287.196,940.2964 288.604,933.4764 290.264,926.7044 L304.404,930.3284 C302.952,936.7204 301.804,943.2204 300.844,949.7924 L300.844,949.7924 Z M282.5,978.3724 L298.124,979.7204 C297.928,985.2924 297.932,990.9564 298.056,996.6724 L281.968,996.6724 C281.944,990.5324 282.144,984.4404 282.5,978.3724 L282.5,978.3724 Z M298.468,973.3124 L282.932,971.9764 C283.432,965.7764 284.124,959.6164 285.02,953.4924 L299.968,956.1484 C299.284,961.7964 298.8,967.5204 298.468,973.3124 L298.468,973.3124 Z M266.836,950.2604 C265.872,956.8844 265.164,963.6124 264.596,970.3884 L231.064,967.4924 C231.516,959.6444 232.244,951.9124 233.216,944.2884 L266.836,950.2604 Z M272.224,922.0764 C270.508,929.2524 269.104,936.5564 267.88,943.9324 L234.072,937.9244 C235.296,929.6524 236.824,921.5004 238.676,913.4684 L272.224,922.0764 Z M279.636,896.1804 C277.468,902.6484 275.588,909.2284 273.852,915.8684 L240.212,907.2404 C242.204,899.3604 244.44,891.5684 247.056,883.8924 L279.636,896.1804 Z M260.668,850.7084 C263.844,844.0564 267.208,837.4564 270.892,830.9284 L300.3,848.6524 C297.252,854.3004 294.408,860.0244 291.74,865.8204 L260.668,850.7084 Z M289.076,871.6604 C286.432,877.7364 284.036,883.9084 281.8,890.1444 L249.26,877.8684 C251.884,870.6684 254.704,863.5284 257.888,856.4884 L289.076,871.6604 Z M230.76,973.9044 L264.064,976.7804 C263.636,983.3324 263.424,989.9764 263.352,996.6724 L230.572,996.6724 C230.412,988.9764 230.464,981.3844 230.76,973.9044 L230.76,973.9044 Z M282.464,1012.1604 C282.296,1009.1284 282.188,1006.1044 282.112,1003.0884 L298.212,1003.0884 C298.336,1006.0844 298.54,1009.1244 298.748,1012.1604 L282.464,1012.1604 Z M289.508,576.8524 C303.188,579.1004 319.356,581.0124 337.384,582.5124 C317.612,646.9604 318.544,721.9404 340.104,810.7924 C261.196,766.7964 261.176,664.2804 261.176,619.3564 C261.176,598.8084 271.392,585.4884 289.508,576.8524 L289.508,576.8524 Z M236.104,679.7284 L236.6,670.0484 C241.3,670.7404 246.092,671.3124 250.976,671.7564 L250.976,680.7444 C245.988,680.6124 241.032,680.2564 236.104,679.7284 L236.104,679.7284 Z M122.208,625.6524 L130.596,619.5684 C135.592,624.6924 140.972,629.4484 146.688,633.8724 L139.708,640.8644 C133.588,636.1524 127.736,631.0764 122.208,625.6524 L122.208,625.6524 Z M101.456,577.5084 C103.804,582.4204 106.336,587.1764 109.1,591.7404 L98.096,596.7324 C94.84,591.9244 91.78,586.9564 88.968,581.8244 L101.456,577.5084 Z M160.788,568.2964 L124.684,584.6724 C122.144,580.6244 119.768,576.3844 117.568,571.9484 L154.02,559.3564 C156.132,562.4604 158.42,565.4164 160.788,568.2964 L160.788,568.2964 Z M212.988,647.6084 L222.768,608.8204 C226.188,609.7924 229.668,610.5684 233.168,611.2404 L231.088,652.1604 C224.88,650.8604 218.856,649.3284 212.988,647.6084 L212.988,647.6084 Z M208.796,664.2204 C215.704,666.1324 222.832,667.7724 230.228,669.0604 L229.724,678.9364 C221.8,677.8124 213.98,676.1884 206.308,674.0804 L208.796,664.2204 Z M179.152,653.5324 C186.596,656.9604 194.416,659.9644 202.612,662.5044 L200.152,672.2764 C191.276,669.5164 182.624,666.1204 174.268,662.1204 L179.152,653.5324 Z M173.404,650.6604 L168.52,659.2524 C160.312,654.9844 152.424,650.1284 144.908,644.7324 C147.016,642.6244 149.368,640.2604 151.896,637.7284 C158.62,642.5124 165.8,646.8164 173.404,650.6604 L173.404,650.6604 Z M207.652,603.4084 C210.604,604.6804 213.6,605.8484 216.644,606.8884 L206.852,645.7044 C200.256,643.5524 193.88,641.1204 187.768,638.3724 L207.652,603.4084 Z M193.44,596.1724 C196.176,597.7884 198.952,599.3244 201.8,600.7284 L181.952,635.6324 C175.756,632.5604 169.848,629.1444 164.236,625.3724 C176.024,613.5644 188.108,601.4764 193.44,596.1724 L193.44,596.1724 Z M177.828,585.3044 C181.048,587.9404 184.412,590.3884 187.872,592.6844 C186.592,593.9444 185.048,595.4804 183.152,597.3764 C177.96,602.5564 171.048,609.4724 164.14,616.3884 L158.94,621.5964 C153.888,617.8564 149.096,613.8084 144.596,609.4084 L177.828,585.3044 Z M126.208,614.8244 L117.66,621.0244 C112.004,615.0764 106.716,608.7524 101.848,602.0764 L112.596,597.2044 C116.732,603.4324 121.268,609.3124 126.208,614.8244 L126.208,614.8244 Z M128.264,590.0964 L165.188,573.3444 C167.636,576.0004 170.164,578.5804 172.828,581.0044 L140.032,604.7964 C135.808,600.2444 131.904,595.3244 128.264,590.0964 L128.264,590.0964 Z M250.976,655.5404 C246.388,654.9124 241.88,654.1884 237.444,653.3724 L239.536,612.2884 C243.324,612.8084 247.132,613.2004 250.976,613.3564 L250.976,655.5404 Z M201.84,381.4044 C201.84,269.5444 310.716,24.5764 427.948,20.1604 L427.948,439.3844 L367.524,439.3844 C357.8,439.3844 349.884,447.2964 349.884,457.0204 C349.884,466.7484 357.8,474.6604 367.524,474.6604 L427.948,474.6604 L427.948,550.3044 C334.628,549.9804 275.328,535.6684 241.536,505.3164 C213.34,479.9924 201.84,444.0924 201.84,381.4044 L201.84,381.4044 Z M155.864,399.1924 L155.484,397.6084 C152.264,384.1764 152.144,370.9324 155.124,358.2484 L155.56,356.3884 C157.608,348.7444 163.788,343.4204 170.676,343.4204 L171.372,343.4204 L171.372,412.3764 L171.048,412.3764 C164.144,412.3764 157.944,406.9644 155.864,399.1924 L155.864,399.1924 Z M105.204,382.8924 C105.256,382.5844 105.276,382.2764 105.32,381.9684 C105.376,381.5444 105.44,381.1244 105.48,380.6964 C105.568,379.7644 105.624,378.8324 105.624,377.8964 C105.624,376.9604 105.568,376.0284 105.48,375.0924 C105.44,374.6684 105.376,374.2524 105.324,373.8324 C105.28,373.5204 105.256,373.2084 105.204,372.9004 L144.324,363.5564 C144.316,363.6084 144.316,363.6604 144.308,363.7124 C143.292,370.6844 143.088,377.7724 143.7,384.9364 C143.712,385.0404 143.724,385.1444 143.732,385.2444 C143.932,387.4604 144.212,389.6844 144.564,391.9164 C144.584,392.0484 144.592,392.1764 144.612,392.3084 L105.204,382.8924 Z M74.884,399.0084 C63.244,399.0084 53.772,389.5404 53.772,377.8964 C53.772,366.2524 63.244,356.7804 74.884,356.7804 C84.088,356.7804 91.912,362.7084 94.796,370.9364 L94.8,370.9404 C95.184,372.0404 95.468,373.1564 95.668,374.2764 C95.684,374.3804 95.7,374.4884 95.716,374.5924 C95.896,375.6924 96,376.7964 96,377.8964 C96,379.0004 95.896,380.1044 95.716,381.2004 C95.7,381.3044 95.684,381.4084 95.668,381.5164 C95.468,382.6364 95.184,383.7484 94.8,384.8484 L94.792,384.8724 C91.9,393.0924 84.084,399.0084 74.884,399.0084 L74.884,399.0084 Z M660.476,381.4044 C660.476,492.8084 625.372,549.6724 434.364,550.3044 L434.364,474.6604 L494.788,474.6604 C504.516,474.6604 512.428,466.7484 512.428,457.0204 C512.428,447.2964 504.516,439.3844 494.788,439.3844 L434.364,439.3844 L434.364,20.1604 C551.6,24.5764 660.476,269.5444 660.476,381.4044 L660.476,381.4044 Z M711.38,356.3964 L711.808,358.2124 L711.82,358.2724 C714.784,370.9324 714.668,384.1444 711.468,397.5444 C711.456,397.5844 711.448,397.6244 711.44,397.6644 L711.08,399.1644 C709.012,406.9524 702.8,412.3764 695.888,412.3764 L695.564,412.3764 L695.564,343.4204 L696.26,343.4204 C703.152,343.4204 709.336,348.7484 711.38,356.3964 L711.38,356.3964 Z M761.732,372.9004 C761.684,373.1924 761.664,373.4884 761.624,373.7844 C761.564,374.2244 761.496,374.6604 761.456,375.1084 C761.368,376.0364 761.316,376.9684 761.316,377.8964 C761.316,378.8284 761.368,379.7564 761.456,380.6844 C761.496,381.1324 761.564,381.5724 761.624,382.0164 C761.664,382.3084 761.684,382.6004 761.732,382.8924 L722.328,392.3084 C722.348,392.1644 722.356,392.0284 722.376,391.8884 C722.728,389.6764 723.008,387.4684 723.2,385.2724 L723.236,384.9244 C723.848,377.7564 723.644,370.6644 722.624,363.6884 C722.62,363.6444 722.62,363.6004 722.612,363.5564 L761.732,372.9004 Z M792.052,356.7804 C803.692,356.7804 813.168,366.2524 813.168,377.8964 C813.168,389.5404 803.692,399.0084 792.052,399.0084 C782.888,399.0084 775.092,393.1324 772.18,384.9604 L772.14,384.8484 C771.752,383.7484 771.468,382.6324 771.268,381.5084 C771.252,381.4084 771.236,381.3084 771.22,381.2084 C771.04,380.1044 770.936,379.0004 770.936,377.8964 C770.936,376.7924 771.04,375.6884 771.22,374.5884 L771.268,374.2844 C771.468,373.1604 771.752,372.0444 772.14,370.9404 L772.172,370.8484 C775.08,362.6684 782.88,356.7804 792.052,356.7804 L792.052,356.7804 Z M494.788,449.0044 C499.208,449.0044 502.808,452.6004 502.808,457.0204 C502.808,461.4444 499.208,465.0404 494.788,465.0404 L367.524,465.0404 C363.104,465.0404 359.508,461.4444 359.508,457.0204 C359.508,452.6004 363.104,449.0044 367.524,449.0044 L494.788,449.0044 Z M624.88,612.2884 L626.972,653.3724 C622.536,654.1884 618.028,654.9164 613.444,655.5404 L613.444,613.3564 C617.284,613.2004 621.096,612.8084 624.88,612.2884 L624.88,612.2884 Z M700.28,616.3884 C693.368,609.4724 686.46,602.5564 681.264,597.3764 C679.368,595.4804 677.828,593.9444 676.544,592.6884 C680.008,590.3884 683.368,587.9404 686.592,585.3044 L719.824,609.4084 C715.328,613.8084 710.532,617.8564 705.48,621.5964 L700.28,616.3884 Z M682.468,635.6324 L662.616,600.7284 C665.464,599.3244 668.244,597.7884 670.976,596.1724 C676.308,601.4764 688.396,613.5644 700.184,625.3724 C694.572,629.1444 688.664,632.5604 682.468,635.6324 L682.468,635.6324 Z M691.016,650.6604 C698.62,646.8164 705.8,642.5124 712.52,637.7284 C715.048,640.2604 717.404,642.6204 719.512,644.7324 C711.996,650.1284 704.108,654.9844 695.9,659.2524 L691.016,650.6604 Z M661.808,662.5044 C670.004,659.9644 677.828,656.9604 685.268,653.5324 L690.152,662.1204 C681.796,666.1204 673.144,669.5164 664.272,672.2764 L661.808,662.5044 Z M655.624,664.2204 L658.112,674.0804 C650.44,676.1884 642.62,677.8124 634.692,678.9364 L634.192,669.0604 C641.588,667.7724 648.712,666.1324 655.624,664.2204 L655.624,664.2204 Z M647.776,606.8844 C650.82,605.8484 653.816,604.6804 656.764,603.4084 L676.648,638.3724 C670.536,641.1204 664.168,643.5524 657.568,645.7044 L647.776,606.8844 Z M651.432,647.6084 C645.56,649.3284 639.536,650.8604 633.336,652.1604 L631.256,611.2404 C634.756,610.5684 638.228,609.7924 641.652,608.8164 L651.432,647.6084 Z M751.824,597.2004 L762.572,602.0764 C757.704,608.7524 752.416,615.0764 746.756,621.0284 L738.208,614.8244 C743.152,609.3124 747.684,603.4324 751.824,597.2004 L751.824,597.2004 Z M724.384,604.7964 L691.592,581.0044 C694.252,578.5804 696.78,576.0004 699.228,573.3444 L736.156,590.0964 C732.516,595.3244 728.608,600.2444 724.384,604.7964 L724.384,604.7964 Z M710.396,559.3564 L746.848,571.9484 C744.652,576.3844 742.276,580.6244 739.732,584.6724 L703.632,568.2964 C706.004,565.4164 708.288,562.4604 710.396,559.3564 L710.396,559.3564 Z M113.9,548.4764 C116.96,547.3484 120.356,548.9164 121.488,551.9764 C122.616,555.0404 121.048,558.4364 117.988,559.5644 C114.928,560.6924 111.528,559.1284 110.404,556.0644 C109.272,553.0044 110.84,549.6084 113.9,548.4764 L113.9,548.4764 Z M794.272,464.8844 L784.996,490.0484 C793.628,498.2564 797.064,511.1244 792.688,522.9924 C786.824,538.9004 769.108,547.0724 753.196,541.2084 C737.292,535.3404 729.12,517.6244 734.988,501.7164 C739.36,489.8484 750.336,482.2924 762.232,481.6524 L771.512,456.4924 C745.836,452.9444 720.248,467.5204 710.912,492.8364 C702.58,515.4364 709.68,539.9044 726.816,554.8484 L706.404,547.8004 L704.364,551.0124 C683.724,583.5524 647.112,603.7764 608.784,603.8284 C605.404,591.1324 597.76,581.5004 586.968,574.2244 C608.024,569.7924 620.384,564.4164 620.384,558.6204 C620.384,551.9964 604.248,545.9324 577.448,541.1844 C632.748,521.5844 656.884,486.8804 665.732,438.3004 L673.652,438.3004 C683.812,438.3004 692.332,431.3764 694.816,421.9964 L695.888,421.9964 C706.824,421.9964 716.56,414.1444 720.056,402.7404 L764.796,392.0524 C769.928,401.8924 780.208,408.6324 792.052,408.6324 C809,408.6324 822.788,394.8444 822.788,377.8964 C822.788,360.9484 809,347.1604 792.052,347.1604 C780.212,347.1604 769.928,353.9004 764.8,363.7364 L720.452,353.1484 C717.064,341.7044 707.272,333.7964 696.26,333.7964 L694.816,333.7964 C692.332,324.4164 683.812,317.4924 673.652,317.4924 L661.816,317.4924 C650.376,266.5604 627.904,206.9484 599.6,155.3804 C569.884,101.2484 508.492,10.4324 431.156,10.4324 C353.82,10.4324 292.428,101.2484 262.716,155.3804 C234.412,206.9444 211.936,266.5604 200.496,317.4924 L193.288,317.4924 C183.128,317.4924 174.604,324.4164 172.124,333.7964 L170.676,333.7964 C159.672,333.7964 149.876,341.7044 146.484,353.1444 L102.14,363.7404 C97.008,353.9004 86.728,347.1604 74.884,347.1604 C57.936,347.1604 44.152,360.9484 44.152,377.8964 C44.152,394.8444 57.936,408.6324 74.884,408.6324 C86.728,408.6324 97.008,401.8924 102.14,392.0524 L146.876,402.7404 C150.376,414.1444 160.116,421.9964 171.048,421.9964 L172.124,421.9964 C174.604,431.3764 183.128,438.3004 193.288,438.3004 L196.572,438.3004 C201.728,465.9564 212.636,492.2924 235.104,512.4764 C248.248,524.2764 264.888,533.7684 285.444,541.0844 C258.3,545.8444 241.932,551.9524 241.932,558.6204 C241.932,564.4164 254.288,569.7924 275.344,574.2244 C264.576,581.4884 256.932,591.0964 253.548,603.7604 C215.984,602.9884 180.316,582.9604 160.048,551.0124 L158.012,547.8004 L137.604,554.8484 C154.74,539.9044 161.84,515.4364 153.504,492.8364 C144.168,467.5204 118.584,452.9444 92.908,456.4924 L102.188,481.6524 C114.084,482.2924 125.056,489.8484 129.432,501.7164 C135.296,517.6244 127.128,535.3404 111.22,541.2084 C95.308,547.0724 77.596,538.9004 71.728,522.9924 C67.352,511.1244 70.792,498.2564 79.424,490.0484 L70.144,464.8844 C48.316,478.8564 38.32,506.5524 47.656,531.8724 C55.688,553.6564 75.756,567.4964 97.552,568.6764 L75.296,576.3644 L77.804,581.2924 C111.588,647.5924 181.452,690.4284 255.784,690.4284 L255.84,690.4284 C260.584,721.3124 270.588,754.7524 291.684,782.2724 C239.6,850.2444 216.596,925.5644 221.516,1012.1604 L155.38,1012.1604 C147.444,1012.1604 140.948,1018.6524 140.948,1026.5924 L140.948,1035.0844 L321.924,1035.0844 L321.924,1026.5924 C321.924,1018.9644 315.908,1012.7324 308.396,1012.2524 C303.56,943.4364 320.924,885.8524 362.796,831.8124 L363.06,831.4764 C382.268,837.6084 404.76,841.1084 431.156,841.1084 C457.572,841.1084 480.076,837.6044 499.292,831.4684 L499.564,831.8124 C541.44,885.8564 558.804,943.4404 553.964,1012.2524 C546.452,1012.7324 540.436,1018.9684 540.436,1026.5924 L540.436,1035.0844 L721.412,1035.0844 L721.412,1026.5924 C721.412,1018.6524 714.916,1012.1604 706.98,1012.1604 L640.848,1012.1604 C645.768,925.5524 622.752,850.2204 570.656,782.2404 C591.732,754.7244 601.732,721.3004 606.476,690.4284 L608.632,690.4284 C682.968,690.4284 752.832,647.5924 786.616,581.2924 L789.124,576.3644 L766.864,568.6764 C788.668,567.4964 808.728,553.6564 816.764,531.8724 C826.1,506.5524 816.104,478.8564 794.272,464.8844 L794.272,464.8844 Z" id="Fill-60" fill="#2E1B36"></path>
            <path d="M811.8696,530.068 C804.7976,549.248 787.0176,562.36 766.5816,563.468 L765.1616,573.612 L781.7576,579.34 C748.7696,643.672 680.8656,685.212 608.6296,685.212 L601.9976,685.212 L601.3176,689.636 C595.7096,726.152 583.9976,756.244 566.5136,779.064 L564.0856,782.236 L566.5136,785.412 C617.8776,852.432 640.4896,926.504 635.6376,1011.86 L635.3216,1017.376 L706.9776,1017.376 C712.0616,1017.376 716.1976,1021.512 716.1976,1026.592 L716.1976,1029.868 L545.6536,1029.868 L545.6536,1026.592 C545.6536,1021.784 549.4536,1017.768 554.2936,1017.456 L558.8456,1017.16 L559.1616,1012.616 C564.1096,942.316 546.4776,883.844 503.6856,828.62 L501.4536,825.736 L497.7016,826.492 C478.1856,832.728 455.7936,835.888 431.1576,835.888 C406.5336,835.888 384.1576,832.732 364.6456,826.504 L361.2016,825.412 L358.9616,828.248 C315.8776,883.844 298.2496,942.316 303.1976,1012.616 L303.5136,1017.16 L308.0616,1017.456 C312.9136,1017.768 316.7056,1021.784 316.7056,1026.592 L316.7056,1029.868 L146.1656,1029.868 L146.1656,1026.592 C146.1656,1021.512 150.3016,1017.376 155.3816,1017.376 L227.0376,1017.376 L226.7256,1011.86 C221.8736,926.516 244.4776,852.456 295.8256,785.444 L298.2536,782.268 L295.8256,779.096 C278.3256,756.272 266.6136,726.168 260.9976,689.64 L260.3176,685.212 L255.8416,685.212 C183.5456,685.212 115.6496,643.672 82.6656,579.336 L99.2536,573.612 L97.8376,563.468 C77.3976,562.36 59.6216,549.248 52.5496,530.068 C45.0656,509.776 51.4256,486.864 67.6496,473.192 L73.4096,488.808 C64.8696,498.66 62.2656,512.42 66.8296,524.8 C72.0216,538.872 85.6016,548.324 100.6136,548.32 C104.8496,548.32 109.0256,547.576 113.0256,546.1 C122.0296,542.78 129.2016,536.144 133.2296,527.412 C137.2576,518.68 137.6456,508.912 134.3256,499.908 C129.7616,487.536 118.8496,478.756 105.9576,476.8 L100.1976,461.18 C100.3256,461.18 100.4536,461.18 100.5776,461.18 C121.9296,461.18 141.2296,474.628 148.6056,494.644 C155.9016,514.412 150.1016,537.032 134.1776,550.912 L139.3096,559.78 L155.8136,554.076 C176.9296,587.144 214.3016,608.168 253.4416,608.976 L257.5336,609.056 L258.5856,605.108 C261.5056,594.196 267.9416,585.508 278.2616,578.552 L288.4776,571.66 L276.4176,569.124 C253.4936,564.292 248.3456,559.832 247.3256,558.62 C248.4856,557.252 254.9256,551.732 286.3416,546.22 L305.8376,542.804 L287.1896,536.168 C267.2416,529.068 251.3496,520.048 238.5896,508.592 C219.5096,491.456 207.4456,468.152 201.7016,437.344 L200.9096,433.08 L193.2856,433.08 C185.7336,433.08 179.1056,427.976 177.1696,420.66 L176.1376,416.78 L171.0496,416.78 C162.4336,416.78 154.7256,410.524 151.8696,401.208 L150.9896,398.36 L99.4016,386.032 L97.5176,389.636 C93.0776,398.136 84.4096,403.416 74.8856,403.416 C60.8136,403.416 49.3656,391.968 49.3656,377.896 C49.3656,363.824 60.8136,352.376 74.8856,352.376 C84.4136,352.376 93.0776,357.652 97.5136,366.152 L99.3896,369.76 L150.6216,357.52 L151.4856,354.628 C154.2536,345.288 161.9656,339.016 170.6776,339.016 L176.1376,339.016 L177.1696,335.132 C179.1056,327.816 185.7336,322.708 193.2856,322.708 L204.6696,322.708 L205.5856,318.636 C217.2696,266.636 239.7576,208.048 267.2896,157.888 C296.4456,104.768 356.5096,15.652 431.1576,15.652 C505.8016,15.652 565.8656,104.768 595.0216,157.892 C622.5616,208.052 645.0496,266.644 656.7256,318.636 L657.6376,322.708 L673.6496,322.708 C681.2056,322.708 687.8336,327.816 689.7736,335.132 L690.7976,339.016 L696.2616,339.016 C704.9696,339.016 712.6816,345.288 715.4496,354.628 L716.3016,357.52 L767.5456,369.76 L769.4296,366.152 C773.8576,357.652 782.5256,352.376 792.0536,352.376 C806.1216,352.376 817.5736,363.824 817.5736,377.896 C817.5736,391.968 806.1216,403.416 792.0536,403.416 C782.5256,403.416 773.8536,398.136 769.4216,389.64 L767.5416,386.032 L715.9496,398.36 L715.0696,401.212 C712.2176,410.524 704.5096,416.78 695.8896,416.78 L690.7976,416.78 L689.7736,420.66 C687.8336,427.976 681.2056,433.08 673.6496,433.08 L661.3816,433.08 L660.6056,437.364 C651.3336,488.24 625.1536,518.74 575.7056,536.268 L557.0616,542.876 L576.5336,546.32 C607.4616,551.796 613.8376,557.26 614.9896,558.62 C613.9696,559.832 608.8176,564.292 585.8936,569.124 L573.8296,571.66 L584.0536,578.552 C594.3936,585.52 600.8296,594.228 603.7416,605.168 L604.7776,609.052 L608.7936,609.048 C648.7856,608.988 686.9936,587.932 708.6016,554.076 L725.1136,559.78 L730.2456,550.912 C714.3136,537.032 708.5136,514.416 715.8096,494.644 C723.1896,474.628 742.4896,461.18 763.8376,461.18 C763.9616,461.18 764.0936,461.18 764.2216,461.18 L758.4616,476.8 C745.5736,478.756 734.6536,487.536 730.0896,499.912 C723.2336,518.52 732.7896,539.236 751.3976,546.1 C755.3976,547.576 759.5736,548.32 763.8056,548.32 C778.8256,548.32 792.3976,538.868 797.5856,524.8 C802.1496,512.42 799.5456,498.656 791.0136,488.808 L796.7696,473.192 C812.9896,486.864 819.3496,509.776 811.8696,530.068 M799.8976,456.096 L788.9656,449.108 L772.8256,492.88 L777.7976,497.608 C783.7056,503.228 785.7056,511.772 782.9056,519.38 C779.9696,527.332 772.2896,532.672 763.8016,532.672 C761.4216,532.672 759.0656,532.248 756.8096,531.416 C751.7296,529.544 747.6776,525.796 745.4016,520.86 C743.1216,515.92 742.9056,510.404 744.7816,505.324 C747.5896,497.712 754.6536,492.512 762.7896,492.072 L769.6416,491.704 L785.7856,447.932 L772.9376,446.156 C769.9296,445.74 766.8656,445.532 763.8296,445.532 C735.9616,445.532 710.7656,463.092 701.1256,489.228 C695.4536,504.604 695.8456,521.296 701.4696,536.108 L695.5616,545.42 C678.1416,572.876 648.1896,590.692 616.1176,593.108 C614.0656,588.24 611.3816,583.716 608.0816,579.544 C621.1936,575.196 630.8136,568.992 630.8136,558.62 C630.8136,549.928 624.3336,543.476 609.4496,538.232 C643.9536,518.84 664.9056,489.756 674.2456,448.728 C686.0216,448.512 696.5576,441.904 702.0376,431.864 C713.0496,429.812 722.5616,422.336 727.7496,411.632 L760.1496,403.888 C767.8816,413.404 779.5016,419.068 792.0496,419.068 C814.7536,419.068 833.2216,400.596 833.2216,377.896 C833.2216,355.196 814.7536,336.728 792.0496,336.728 C779.5016,336.728 767.8816,342.384 760.1496,351.9 L728.1936,344.268 C723.0016,333.356 713.2856,325.78 701.9896,323.848 C696.4136,313.68 685.6296,307.06 673.6456,307.06 L670.0976,307.06 C657.6616,255.78 635.5296,199.152 608.7456,150.36 C577.9176,94.204 513.8576,0 431.1576,0 C348.4496,0 284.3896,94.204 253.5656,150.36 C226.7816,199.156 204.6416,255.796 192.2136,307.076 C180.6616,307.456 170.3576,313.984 164.9456,323.848 C153.6536,325.784 143.9416,333.356 138.7456,344.268 L106.7856,351.9 C99.0536,342.384 87.4336,336.728 74.8856,336.728 C52.1856,336.728 33.7176,355.196 33.7176,377.896 C33.7176,400.596 52.1856,419.068 74.8856,419.068 C87.4336,419.068 99.0536,413.404 106.7856,403.888 L139.1896,411.632 C144.3776,422.336 153.8856,429.812 164.8976,431.864 C169.6336,440.548 178.1576,446.66 187.9896,448.296 C194.9536,478.676 208.1296,502.272 228.1336,520.236 C235.5776,526.92 243.9096,532.844 253.2856,538.084 C238.1016,543.356 231.4976,549.852 231.4976,558.62 C231.4976,568.992 241.1176,575.196 254.2296,579.544 C250.9816,583.652 248.3296,588.108 246.2856,592.892 C214.9896,589.876 185.8176,572.152 168.8576,545.416 L162.9496,536.108 C168.5736,521.296 168.9656,504.604 163.2936,489.228 C153.6536,463.088 128.4576,445.532 100.5856,445.532 C97.5536,445.532 94.4896,445.74 91.4776,446.156 L78.6336,447.932 L94.7696,491.704 L101.6256,492.072 C109.7656,492.512 116.8376,497.712 119.6416,505.324 C123.5176,515.836 118.1216,527.544 107.6096,531.416 C105.3496,532.248 102.9936,532.672 100.6136,532.672 C92.1216,532.672 84.4496,527.332 81.5216,519.384 C78.7096,511.768 80.7096,503.224 86.6176,497.608 L91.5896,492.88 L75.4456,449.104 L64.5216,456.096 C38.3016,472.876 27.0896,506.26 37.8656,535.48 C43.0736,549.604 52.7256,561.212 64.9376,568.904 L60.5576,570.416 L68.5096,586.032 C102.7096,653.152 172.0616,697.42 246.9816,700.668 C252.8896,732.776 263.5336,760.12 278.7136,782.16 C230.4536,847.712 208.1136,919.712 210.6176,1001.724 L155.3816,1001.724 C141.6696,1001.724 130.5176,1012.884 130.5176,1026.592 L130.5176,1045.52 L332.3576,1045.52 L332.3576,1026.592 C332.3576,1016.872 326.6776,1008.36 318.3776,1004.304 C315.5056,943.62 330.9976,892.272 367.0176,843.536 C386.3016,848.852 407.8376,851.544 431.1576,851.544 C454.4896,851.544 476.0416,848.844 495.3456,843.52 C531.2976,892.06 546.8616,943.488 543.9816,1004.304 C535.6816,1008.36 530.0016,1016.872 530.0016,1026.592 L530.0016,1045.52 L731.8456,1045.52 L731.8456,1026.592 C731.8456,1012.884 720.6856,1001.724 706.9776,1001.724 L651.7416,1001.724 C654.2496,919.7 631.9096,847.692 583.6216,782.132 C598.7776,760.116 609.4096,732.812 615.3136,700.752 C691.0136,698.272 761.3816,653.8 795.9136,586.032 L803.8696,570.42 L799.4816,568.904 C811.6936,561.212 821.3456,549.604 826.5536,535.48 C837.3296,506.26 826.1216,472.876 799.8976,456.096" id="Fill-61" fill="#2E1B36"></path>
            <path d="M512.9984,642.1032 L490.0344,665.4472 L504.4824,671.7952 C506.0584,672.4912 506.2304,674.6592 504.7784,675.5912 L453.5464,708.5512 C450.8784,710.2672 447.9184,706.8232 450.0264,704.4472 L471.9424,679.6832 L453.7464,676.1272 C451.8424,675.7592 451.3544,673.2672 452.9704,672.2032 L508.0424,636.0632 C511.9784,633.4792 516.3024,638.7472 512.9984,642.1032 L512.9984,642.1032 Z M431.1584,720.8352 L528.4464,720.8352 L528.4464,623.5512 L431.1584,623.5512 L431.1584,720.8352 Z" id="Fill-62" fill="#2E1B36"></path>
        </g>
        <g id="Group" transform="translate(180.000000, 12.000000)" stroke-width="20">
            <g id="Grad-Cap">
                <path d="M404.297144,149.03708 C420.111342,195.537743 422.910423,227.496923 422.910423,244.91462 C422.910423,276.208835 316.708872,287.58855 248.889112,287.58855 C181.069352,287.58855 84.5820846,276.208835 84.5820846,244.91462 C84.5820846,227.47485 91.4775103,195.456719 105.268362,148.860226" id="Rectangle" stroke="#2D1937" fill="#FFFFFF"></path>
                <polygon id="Line-2" stroke="#2D1937" fill="#FFFFFF" stroke-linecap="square" points="254.725969 -3.46397751e-16 5.56767689e-14 105.097215 253.746254 210.19443 507.492507 105.097215"></polygon>
                <path d="M42.2910423,256.437204 C51.6337214,256.437204 59.2074592,264.010942 59.2074592,273.353621 L59.2074592,319.495533 L59.2074592,319.495533 L25.3746254,319.495533 L25.3746254,273.353621 C25.3746254,264.010942 32.9483632,256.437204 42.2910423,256.437204 Z" id="Rectangle" stroke="#EFC319" fill="#FFFFFF"></path>
                <ellipse id="Oval" stroke="#EFC319" fill="#FFFFFF" cx="42.2910423" cy="239.62165" rx="16.9164169" ry="16.8155544"></ellipse>
                <polyline id="Line-3" stroke="#EFC319" stroke-linecap="round" stroke-linejoin="round" points="253.746254 105.097215 42.2910423 124.014714 42.2910423 222.806096"></polyline>
            </g>
        </g>
    </g>
</svg>